<svg width="104" height="117" viewBox="0 0 104 117" fill="none" xmlns="http://www.w3.org/2000/svg">
<path d="M18.5907 82.3539L24.9959 86.0142L19.3422 95.9085H36.8878V90.9901H44.2654V103.286H19.2512L24.9959 113.34L18.5907 117L10.754 103.286H-8.01086e-05V95.9085H10.845L18.5907 82.3539Z" fill="#65B741"/>
<path d="M95.8969 50.6176C95.8812 49.933 95.85 49.2522 95.8034 48.5756L96.3022 48.5413C96.2548 47.8508 96.1915 47.1645 96.1129 46.4829L95.6162 46.5401C95.5379 45.8605 95.4441 45.1855 95.3352 44.5155L95.8287 44.4353C95.7177 43.7526 95.5912 43.0751 95.4497 42.403L94.9604 42.5061C94.8195 41.8371 94.6634 41.1737 94.4925 40.5161L94.9765 40.3904C94.8026 39.7213 94.6136 39.0583 94.4099 38.4016L93.9323 38.5498C93.7298 37.8971 93.5126 37.2508 93.281 36.6114L93.7512 36.4411C93.5159 35.7915 93.2661 35.1488 93.002 34.5135L92.5403 34.7055C92.2782 34.0749 92.0019 33.4516 91.7118 32.8361L92.1641 32.623C91.8698 31.9984 91.5615 31.3818 91.2395 30.7734L90.7976 31.0072C90.4784 30.404 90.1456 29.809 89.7998 29.2227L90.2304 28.9686C89.8799 28.3743 89.516 27.7888 89.1392 27.2124L88.7207 27.486C88.3474 26.9151 87.9614 26.3532 87.5629 25.8009L87.9683 25.5083C87.5648 24.949 87.1488 24.3994 86.7205 23.8599L86.3289 24.1707C85.905 23.6366 85.469 23.1125 85.0214 22.5988L85.3984 22.2704C84.9456 21.7506 84.4809 21.2414 84.005 20.7431L83.6434 21.0884C83.1726 20.5956 82.6906 20.1135 82.1977 19.6427L82.5431 19.2812C82.0448 18.8052 81.5355 18.3406 81.0158 17.8877L80.6873 18.2647C80.1736 17.8171 79.6495 17.3812 79.1154 16.9573L79.4263 16.5656C78.8867 16.1374 78.3371 15.7213 77.7778 15.3178L77.4853 15.7233C76.9329 15.3248 76.3711 14.9387 75.8001 14.5654L76.0737 14.1469C75.4974 13.7701 74.9118 13.4063 74.3175 13.0557L74.0635 13.4864C73.4771 13.1405 72.8821 12.8078 72.2789 12.4886L72.5127 12.0466C71.9044 11.7247 71.2877 11.4164 70.6632 11.122L70.45 11.5743C69.8345 11.2843 69.2113 11.008 68.5807 10.7459L68.7726 10.2842C68.1373 10.0201 67.4946 9.7702 66.845 9.53496L66.6748 10.0051C66.0353 9.77353 65.389 9.5563 64.7364 9.3538L64.8845 8.87625C64.2279 8.67253 63.5648 8.48355 62.8957 8.30969L62.77 8.79361C62.1125 8.62276 61.449 8.46667 60.7801 8.32574L60.8832 7.83648C60.2111 7.69489 59.5335 7.56842 58.8508 7.45745L58.7706 7.95098C58.1006 7.84207 57.4256 7.74825 56.746 7.6699L56.8033 7.17319C56.1216 7.09459 55.4353 7.03138 54.7448 6.98389L54.7105 7.48271C54.0339 7.43618 53.3531 7.40492 52.6686 7.38928L52.68 6.88941C52.3353 6.88154 51.9896 6.87758 51.6431 6.87758C51.2966 6.87758 50.9509 6.88154 50.6062 6.88941L50.6176 7.38928C49.9331 7.40492 49.2523 7.43618 48.5757 7.48271L48.5414 6.98389C47.8509 7.03138 47.1646 7.09459 46.4829 7.17318L46.5402 7.66989C45.8606 7.74825 45.1856 7.84207 44.5156 7.95097L44.4354 7.45745C43.7527 7.56842 43.0751 7.69489 42.403 7.83648L42.5061 8.32574C41.8372 8.46667 41.1737 8.62275 40.5162 8.79361L40.3905 8.30968C39.7214 8.48354 39.0583 8.67253 38.4017 8.87625L38.5498 9.35379C37.8971 9.55629 37.2509 9.77352 36.6114 10.0051L36.4412 9.53496C35.7916 9.7702 35.1489 10.0201 34.5136 10.2841L34.7055 10.7458C34.075 11.008 33.4517 11.2843 32.8362 11.5743L32.623 11.122C31.9985 11.4163 31.3818 11.7247 30.7734 12.0466L31.0073 12.4886C30.4041 12.8078 29.8091 13.1405 29.2227 13.4864L28.9687 13.0557C28.3744 13.4063 27.7888 13.7701 27.2125 14.1469L27.4861 14.5654C26.9151 14.9387 26.3533 15.3248 25.8009 15.7233L25.5084 15.3178C24.9491 15.7213 24.3995 16.1374 23.8599 16.5656L24.1707 16.9573C23.6367 17.3812 23.1126 17.8171 22.5989 18.2647L22.2704 17.8877C21.7506 18.3406 21.2414 18.8052 20.7431 19.2812L21.0885 19.6427C20.5956 20.1135 20.1136 20.5956 19.6428 21.0884L19.2812 20.7431C18.8052 21.2414 18.3406 21.7506 17.8878 22.2704L18.2647 22.5988C17.8172 23.1125 17.3812 23.6366 16.9573 24.1707L16.5657 23.8599C16.1374 24.3994 15.7213 24.949 15.3178 25.5083L15.7233 25.8009C15.3248 26.3532 14.9388 26.915 14.5655 27.486L14.147 27.2124C13.7702 27.7888 13.4063 28.3743 13.0558 28.9686L13.4864 29.2227C13.1406 29.809 12.8078 30.404 12.4886 31.0072L12.0467 30.7734C11.7247 31.3818 11.4164 31.9984 11.1221 32.623L11.5744 32.8361C11.2843 33.4516 11.008 34.0749 10.7459 34.7054L10.2842 34.5135C10.0201 35.1488 9.77025 35.7915 9.53501 36.4411L10.0051 36.6113C9.77357 37.2508 9.55634 37.8971 9.35384 38.5498L8.8763 38.4016C8.67258 39.0582 8.48359 39.7213 8.30973 40.3904L8.79366 40.5161C8.6228 41.1737 8.46671 41.8371 8.32578 42.5061L7.83652 42.403C7.69494 43.075 7.56847 43.7526 7.4575 44.4353L7.95103 44.5155C7.84212 45.1855 7.74831 45.8605 7.66994 46.5401L7.17323 46.4829C7.09464 47.1645 7.03143 47.8508 6.98394 48.5413L7.48276 48.5756C7.43623 49.2522 7.40497 49.933 7.38933 50.6176L6.88946 50.6062C6.88538 50.7849 6.88234 50.9638 6.88037 51.143H6.45543V51.643H4.61104V51.143H2.76664V51.643H0.922249V51.143H0.502457C0.504089 50.9736 0.506546 50.8044 0.509827 50.6354L0.00992584 50.6257C0.0230942 49.9477 0.0493927 49.2728 0.0885773 48.6014L0.58773 48.6305C0.626869 47.9599 0.678986 47.2927 0.743835 46.6292L0.246208 46.5805C0.312241 45.9049 0.391342 45.2331 0.483269 44.5653L0.9786 44.6335C1.07018 43.9682 1.17461 43.3069 1.29162 42.65L0.799362 42.5623C0.918198 41.8951 1.04988 41.2323 1.19416 40.5742L1.68256 40.6813C1.82618 40.0261 1.9824 39.3757 2.15095 38.7301L1.66717 38.6038C1.83838 37.9481 2.02219 37.2974 2.21832 36.652L2.69671 36.7973C2.8918 36.1554 3.0992 35.5187 3.31863 34.8877L2.84637 34.7234C3.06878 34.0838 3.30344 33.4499 3.55006 32.8219L4.01546 33.0047C4.26048 32.3807 4.51743 31.7627 4.78603 31.151L4.32821 30.95C4.60025 30.3303 4.88411 29.717 5.17952 29.1104L5.62907 29.3293C5.92249 28.7266 6.22741 28.1306 6.54355 27.5414L6.10297 27.305C6.42294 26.7087 6.7543 26.1194 7.09673 25.5373L7.52768 25.7908C7.86739 25.2133 8.21813 24.6431 8.57958 24.0803L8.15889 23.8101C8.52441 23.241 8.9008 22.6796 9.28775 22.126L9.69756 22.4125C10.0813 21.8635 10.4754 21.3225 10.8798 20.7895L10.4815 20.4873C10.8902 19.9486 11.3093 19.4182 11.7383 18.8963L12.1246 19.2138C12.5499 18.6965 12.9851 18.1877 13.4299 17.6876L13.0563 17.3553C13.5056 16.8502 13.9647 16.3539 14.4332 15.8669L14.7936 16.2135C15.2576 15.731 15.731 15.2576 16.2135 14.7935L15.8669 14.4332C16.354 13.9647 16.8502 13.5056 17.3553 13.0563L17.6876 13.4299C18.1877 12.985 18.6965 12.5498 19.2138 12.1245L18.8963 11.7383C19.4182 11.3092 19.9487 10.8902 20.4873 10.4815L20.7896 10.8798C21.3225 10.4754 21.8636 10.0812 22.4125 9.69751L22.126 9.2877C22.6796 8.90075 23.2411 8.52437 23.8102 8.15884L24.0804 8.57954C24.6431 8.21808 25.2134 7.86735 25.7909 7.52763L25.5373 7.09667C26.1194 6.75424 26.7088 6.42289 27.3051 6.10291L27.5415 6.54349C28.1307 6.22736 28.7267 5.92243 29.3293 5.62901L29.1104 5.17947C29.7171 4.88406 30.3304 4.60019 30.95 4.32815L31.151 4.78597C31.7628 4.51737 32.3808 4.26042 33.0047 4.0154L32.8219 3.55C33.4499 3.30338 34.0839 3.06873 34.7235 2.84631L34.8877 3.31858C35.5188 3.09914 36.1554 2.89174 36.7974 2.69665L36.652 2.21826C37.2974 2.02213 37.9481 1.83832 38.6039 1.66711L38.7302 2.15089C39.3757 1.98234 40.0262 1.82613 40.6813 1.6825L40.5743 1.1941C41.2324 1.04983 41.8952 0.91814 42.5624 0.799308L42.65 1.29156C43.307 1.17455 43.9682 1.07013 44.6336 0.978545L44.5654 0.483216C45.2332 0.391292 45.905 0.312186 46.5806 0.246152L46.6292 0.743781C47.2927 0.678931 47.9599 0.626811 48.6306 0.587673L48.6014 0.0885218C49.2729 0.0493353 49.9478 0.0230366 50.6258 0.00987008L50.6355 0.509776C50.9706 0.503269 51.3065 0.5 51.6431 0.5C51.9797 0.5 52.3156 0.503269 52.6507 0.509776L52.6604 0.00987049C53.3384 0.0230373 54.0133 0.0493363 54.6848 0.0885231L54.6556 0.587674C55.3263 0.626813 55.9935 0.678932 56.657 0.743783L56.7056 0.246154C57.3812 0.312188 58.053 0.391295 58.7208 0.483218L58.6527 0.978547C59.318 1.07013 59.9792 1.17455 60.6362 1.29156L60.7238 0.79931C61.391 0.918142 62.0538 1.04983 62.7119 1.19411L62.6049 1.68251C63.26 1.82613 63.9105 1.98235 64.556 2.1509L64.6823 1.66711C65.3381 1.83832 65.9888 2.02213 66.6342 2.21826L66.4888 2.69666C67.1307 2.89174 67.7674 3.09914 68.3985 3.31858L68.5627 2.84631C69.2023 3.06873 69.8363 3.30338 70.4643 3.55L70.2815 4.0154C70.9054 4.26043 71.5234 4.51738 72.1352 4.78597L72.3362 4.32815C72.9558 4.60019 73.5691 4.88406 74.1758 5.17947L73.9569 5.62901C74.5595 5.92243 75.1555 6.22736 75.7447 6.54349L75.9811 6.10291C76.5774 6.42289 77.1668 6.75424 77.7488 7.09667L77.4953 7.52763C78.0728 7.86734 78.643 8.21807 79.2058 8.57953L79.476 8.15884C80.0451 8.52437 80.6066 8.90075 81.1601 9.2877L80.8737 9.69751C81.4226 10.0812 81.9637 10.4754 82.4966 10.8798L82.7989 10.4815C83.3375 10.8902 83.868 11.3092 84.3899 11.7383L84.0723 12.1245C84.5896 12.5498 85.0985 12.985 85.5985 13.4299L85.9309 13.0563C86.4359 13.5056 86.9322 13.9647 87.4193 14.4332L87.0727 14.7935C87.5551 15.2576 88.0286 15.731 88.4926 16.2135L88.853 15.8668C89.3215 16.3539 89.7805 16.8502 90.2298 17.3553L89.8563 17.6876C90.3011 18.1877 90.7363 18.6965 91.1616 19.2138L91.5478 18.8963C91.9769 19.4182 92.3959 19.9486 92.8047 20.4873L92.4064 20.7895C92.8107 21.3225 93.2049 21.8635 93.5886 22.4124L93.9984 22.126C94.3854 22.6796 94.7618 23.241 95.1273 23.8101L94.7066 24.0803C95.0681 24.6431 95.4188 25.2133 95.7585 25.7908L96.1895 25.5373C96.5319 26.1194 96.8632 26.7087 97.1832 27.305L96.7426 27.5414C97.0588 28.1306 97.3637 28.7266 97.6571 29.3293L98.1067 29.1104C98.4021 29.717 98.6859 30.3303 98.958 30.95L98.5002 31.151C98.7688 31.7627 99.0257 32.3807 99.2707 33.0047L99.7361 32.8219C99.9828 33.4499 100.217 34.0838 100.44 34.7235L99.9676 34.8877C100.187 35.5187 100.394 36.1554 100.589 36.7974L101.068 36.652C101.264 37.2974 101.448 37.9481 101.619 38.6038L101.135 38.7301C101.304 39.3757 101.46 40.0261 101.604 40.6813L102.092 40.5742C102.236 41.2323 102.368 41.8951 102.487 42.5623L101.995 42.65C102.112 43.3069 102.216 43.9682 102.308 44.6335L102.803 44.5653C102.895 45.2331 102.974 45.9049 103.04 46.5806L102.542 46.6292C102.607 47.2927 102.659 47.9599 102.698 48.6305L103.198 48.6014C103.237 49.2729 103.263 49.9477 103.276 50.6257L102.776 50.6354C102.783 50.9705 102.786 51.3064 102.786 51.643C102.786 51.9797 102.783 52.3156 102.776 52.6507L103.276 52.6604C103.263 53.3384 103.237 54.0132 103.198 54.6847L102.698 54.6556C102.659 55.3262 102.607 55.9934 102.542 56.6569L103.04 56.7055C102.974 57.3812 102.895 58.053 102.803 58.7208L102.308 58.6526C102.216 59.3179 102.112 59.9792 101.995 60.6361L102.487 60.7238C102.368 61.391 102.236 62.0537 102.092 62.7119L101.604 62.6048C101.46 63.2599 101.304 63.9104 101.135 64.556L101.619 64.6823C101.448 65.338 101.264 65.9887 101.068 66.6341L100.589 66.4887C100.394 67.1307 100.187 67.7673 99.9676 68.3984L100.44 68.5626C100.217 69.2023 99.9827 69.8362 99.7361 70.4642L99.2707 70.2814C99.0257 70.9054 98.7688 71.5233 98.5002 72.1351L98.958 72.3361C98.6859 72.9557 98.4021 73.569 98.1067 74.1757L97.6571 73.9568C97.3637 74.5594 97.0588 75.1555 96.7426 75.7446L97.1832 75.981C96.8632 76.5774 96.5319 77.1667 96.1895 77.7488L95.7585 77.4953C95.4188 78.0727 95.0681 78.643 94.7066 79.2057L95.1273 79.4759C94.7618 80.045 94.3854 80.6065 93.9984 81.1601L93.5886 80.8736C93.2049 81.4225 92.8107 81.9636 92.4064 82.4966L92.8047 82.7988C92.3959 83.3375 91.9769 83.8679 91.5478 84.3898L91.1616 84.0723C90.7363 84.5896 90.3011 85.0984 89.8563 85.5985L90.2298 85.9308C89.7805 86.4359 89.3215 86.9321 88.853 87.4192L88.4926 87.0726C88.0286 87.5551 87.5551 88.0285 87.0727 88.4926L87.4193 88.8529C86.9322 89.3214 86.436 89.7805 85.9309 90.2298L85.5985 89.8562C85.0985 90.3011 84.5896 90.7363 84.0723 91.1615L84.3899 91.5478C83.868 91.9768 83.3375 92.3959 82.7989 92.8046L82.4966 92.4063C81.9637 92.8107 81.4226 93.2049 80.8737 93.5886L81.1601 93.9984C80.6066 94.3853 80.0451 94.7617 79.476 95.1272L79.2058 94.7065C78.643 95.068 78.0728 95.4187 77.4953 95.7585L77.7488 96.1894C77.1668 96.5318 76.5774 96.8632 75.9811 97.1832L75.7447 96.7426C75.1555 97.0587 74.5595 97.3636 73.9569 97.6571L74.1758 98.1066C73.5691 98.402 72.9558 98.6859 72.3362 98.9579L72.1352 98.5001C71.5234 98.7687 70.9054 99.0257 70.2815 99.2707L70.4642 99.7361C69.8363 99.9827 69.2023 100.217 68.5627 100.44L68.3985 99.9675C67.7674 100.187 67.1307 100.394 66.4888 100.589L66.6342 101.068C65.9888 101.264 65.3381 101.448 64.6823 101.619L64.556 101.135C63.9105 101.304 63.26 101.46 62.6048 101.604L62.7119 102.092C62.0538 102.236 61.391 102.368 60.7238 102.487L60.6362 101.995C59.9792 102.112 59.3179 102.216 58.6526 102.308L58.7208 102.803C58.053 102.895 57.3812 102.974 56.7056 103.04L56.6569 102.542C55.9934 102.607 55.3262 102.659 54.6556 102.698L54.6847 103.198C54.0133 103.237 53.3384 103.263 52.6604 103.276L52.6507 102.776C52.4817 102.78 52.3125 102.782 52.1431 102.784V102.364H51.6431V100.519H52.1431V98.6751H51.6431V96.8307H52.1431V96.4058C52.3223 96.4038 52.5013 96.4008 52.68 96.3967L52.6685 95.8968C53.3531 95.8812 54.0339 95.8499 54.7105 95.8034L54.7448 96.3022C55.4353 96.2547 56.1216 96.1915 56.8033 96.1129L56.746 95.6162C57.4256 95.5378 58.1006 95.444 58.7706 95.3351L58.8508 95.8286C59.5335 95.7177 60.2111 95.5912 60.8831 95.4496L60.7801 94.9604C61.449 94.8194 62.1124 94.6633 62.77 94.4925L62.8957 94.9764C63.5648 94.8025 64.2279 94.6136 64.8845 94.4098L64.7363 93.9323C65.389 93.7298 66.0353 93.5126 66.6748 93.281L66.845 93.7511C67.4946 93.5159 68.1373 93.266 68.7726 93.0019L68.5807 92.5402C69.2112 92.2781 69.8345 92.0018 70.45 91.7118L70.6632 92.164C71.2877 91.8697 71.9044 91.5614 72.5127 91.2395L72.2789 90.7975C72.8821 90.4783 73.4771 90.1456 74.0635 89.7997L74.3175 90.2304C74.9118 89.8798 75.4974 89.5159 76.0737 89.1392L75.8001 88.7206C76.3711 88.3474 76.9329 87.9613 77.4853 87.5628L77.7778 87.9683C78.3371 87.5648 78.8867 87.1487 79.4263 86.7205L79.1154 86.3288C79.6495 85.9049 80.1736 85.469 80.6873 85.0214L81.0158 85.3984C81.5355 84.9455 82.0448 84.4809 82.5431 84.0049L82.1977 83.6433C82.6906 83.1725 83.1726 82.6905 83.6434 82.1976L84.005 82.543C84.4809 82.0447 84.9456 81.5355 85.3984 81.0157L85.0214 80.6873C85.469 80.1736 85.905 79.6495 86.3289 79.1154L86.7205 79.4262C87.1488 78.8867 87.5648 78.337 87.9684 77.7777L87.5629 77.4852C87.9614 76.9329 88.3474 76.371 88.7207 75.8001L89.1392 76.0737C89.516 75.4973 89.8799 74.9118 90.2304 74.3175L89.7998 74.0634C90.1456 73.4771 90.4784 72.882 90.7976 72.2788L91.2395 72.5127C91.5615 71.9043 91.8698 71.2876 92.1641 70.6631L91.7118 70.45C92.0019 69.8344 92.2782 69.2112 92.5403 68.5806L93.002 68.7726C93.2661 68.1372 93.5159 67.4946 93.7512 66.845L93.281 66.6747C93.5126 66.0353 93.7298 65.389 93.9323 64.7363L94.4099 64.8845C94.6136 64.2278 94.8026 63.5648 94.9764 62.8957L94.4925 62.7699C94.6634 62.1124 94.8195 61.449 94.9604 60.78L95.4497 60.8831C95.5912 60.211 95.7177 59.5335 95.8287 58.8508L95.3352 58.7706C95.4441 58.1006 95.5379 57.4256 95.6162 56.7459L96.1129 56.8032C96.1915 56.1215 96.2548 55.4353 96.3022 54.7448L95.8034 54.7105C95.85 54.0338 95.8812 53.3531 95.8969 52.6685L96.3967 52.6799C96.4046 52.3352 96.4086 51.9896 96.4086 51.643C96.4086 51.2965 96.4046 50.9509 96.3967 50.6062L95.8969 50.6176Z" stroke="#F3CA52" stroke-dasharray="2 2"/>
<path d="M78.5227 51.9091C78.5227 58.2538 77.3201 63.6515 74.9148 68.1023C72.5284 72.553 69.2708 75.9527 65.142 78.3011C61.0322 80.6307 56.411 81.7955 51.2784 81.7955C46.108 81.7955 41.4678 80.6212 37.358 78.2727C33.2481 75.9242 30 72.5246 27.6136 68.0739C25.2273 63.6231 24.0341 58.2348 24.0341 51.9091C24.0341 45.5644 25.2273 40.1667 27.6136 35.7159C30 31.2652 33.2481 27.875 37.358 25.5455C41.4678 23.197 46.108 22.0227 51.2784 22.0227C56.411 22.0227 61.0322 23.197 65.142 25.5455C69.2708 27.875 72.5284 31.2652 74.9148 35.7159C77.3201 40.1667 78.5227 45.5644 78.5227 51.9091ZM66.0511 51.9091C66.0511 47.7992 65.4356 44.3333 64.2045 41.5114C62.9924 38.6894 61.2784 36.5492 59.0625 35.0909C56.8466 33.6326 54.2519 32.9034 51.2784 32.9034C48.3049 32.9034 45.7102 33.6326 43.4943 35.0909C41.2784 36.5492 39.5549 38.6894 38.3239 41.5114C37.1117 44.3333 36.5057 47.7992 36.5057 51.9091C36.5057 56.0189 37.1117 59.4848 38.3239 62.3068C39.5549 65.1288 41.2784 67.2689 43.4943 68.7273C45.7102 70.1856 48.3049 70.9148 51.2784 70.9148C54.2519 70.9148 56.8466 70.1856 59.0625 68.7273C61.2784 67.2689 62.9924 65.1288 64.2045 62.3068C65.4356 59.4848 66.0511 56.0189 66.0511 51.9091Z" fill="#65B741"/>
</svg>
