<svg width="331" height="119" viewBox="0 0 331 119" fill="none" xmlns="http://www.w3.org/2000/svg">
<path d="M214.591 82.3539L220.996 86.0142L215.342 95.9085H232.888V90.9901H240.265V103.286H215.251L220.996 113.34L214.591 117L206.754 103.286H196V95.9085H206.845L214.591 82.3539Z" fill="#65B741"/>
<path d="M291.897 50.6176C291.881 49.933 291.85 49.2522 291.803 48.5756L292.302 48.5413C292.255 47.8508 292.192 47.1645 292.113 46.4829L291.616 46.5401C291.538 45.8605 291.444 45.1855 291.335 44.5155L291.829 44.4353C291.718 43.7526 291.591 43.0751 291.45 42.403L290.96 42.5061C290.819 41.8371 290.663 41.1737 290.493 40.5161L290.976 40.3904C290.803 39.7213 290.614 39.0583 290.41 38.4016L289.932 38.5498C289.73 37.8971 289.513 37.2508 289.281 36.6114L289.751 36.4411C289.516 35.7915 289.266 35.1488 289.002 34.5135L288.54 34.7055C288.278 34.0749 288.002 33.4516 287.712 32.8361L288.164 32.623C287.87 31.9984 287.561 31.3818 287.24 30.7734L286.798 31.0072C286.478 30.404 286.146 29.809 285.8 29.2227L286.23 28.9686C285.88 28.3743 285.516 27.7888 285.139 27.2124L284.721 27.486C284.347 26.9151 283.961 26.3532 283.563 25.8009L283.968 25.5083C283.565 24.949 283.149 24.3994 282.721 23.8599L282.329 24.1707C281.905 23.6366 281.469 23.1125 281.021 22.5988L281.398 22.2704C280.946 21.7506 280.481 21.2414 280.005 20.7431L279.643 21.0884C279.173 20.5956 278.691 20.1135 278.198 19.6427L278.543 19.2812C278.045 18.8052 277.536 18.3406 277.016 17.8877L276.687 18.2647C276.174 17.8171 275.65 17.3812 275.115 16.9573L275.426 16.5656C274.887 16.1374 274.337 15.7213 273.778 15.3178L273.485 15.7233C272.933 15.3248 272.371 14.9387 271.8 14.5654L272.074 14.1469C271.497 13.7701 270.912 13.4063 270.318 13.0557L270.063 13.4864C269.477 13.1405 268.882 12.8078 268.279 12.4886L268.513 12.0466C267.904 11.7247 267.288 11.4164 266.663 11.122L266.45 11.5743C265.834 11.2843 265.211 11.008 264.581 10.7459L264.773 10.2842C264.137 10.0201 263.495 9.7702 262.845 9.53496L262.675 10.0051C262.035 9.77353 261.389 9.5563 260.736 9.3538L260.885 8.87625C260.228 8.67253 259.565 8.48355 258.896 8.30969L258.77 8.79361C258.112 8.62276 257.449 8.46667 256.78 8.32574L256.883 7.83648C256.211 7.69489 255.534 7.56842 254.851 7.45745L254.771 7.95098C254.101 7.84207 253.426 7.74825 252.746 7.6699L252.803 7.17319C252.122 7.09459 251.435 7.03138 250.745 6.98389L250.711 7.48271C250.034 7.43618 249.353 7.40492 248.669 7.38928L248.68 6.88941C248.335 6.88154 247.99 6.87758 247.643 6.87758C247.297 6.87758 246.951 6.88154 246.606 6.88941L246.618 7.38928C245.933 7.40492 245.252 7.43618 244.576 7.48271L244.541 6.98389C243.851 7.03138 243.165 7.09459 242.483 7.17318L242.54 7.66989C241.861 7.74825 241.186 7.84207 240.516 7.95097L240.435 7.45745C239.753 7.56842 239.075 7.69489 238.403 7.83648L238.506 8.32574C237.837 8.46667 237.174 8.62275 236.516 8.79361L236.39 8.30968C235.721 8.48354 235.058 8.67253 234.402 8.87625L234.55 9.35379C233.897 9.55629 233.251 9.77352 232.611 10.0051L232.441 9.53496C231.792 9.7702 231.149 10.0201 230.514 10.2841L230.706 10.7458C230.075 11.008 229.452 11.2843 228.836 11.5743L228.623 11.122C227.998 11.4163 227.382 11.7247 226.773 12.0466L227.007 12.4886C226.404 12.8078 225.809 13.1405 225.223 13.4864L224.969 13.0557C224.374 13.4063 223.789 13.7701 223.212 14.1469L223.486 14.5654C222.915 14.9387 222.353 15.3248 221.801 15.7233L221.508 15.3178C220.949 15.7213 220.399 16.1374 219.86 16.5656L220.171 16.9573C219.637 17.3812 219.113 17.8171 218.599 18.2647L218.27 17.8877C217.751 18.3406 217.241 18.8052 216.743 19.2812L217.089 19.6427C216.596 20.1135 216.114 20.5956 215.643 21.0884L215.281 20.7431C214.805 21.2414 214.341 21.7506 213.888 22.2704L214.265 22.5988C213.817 23.1125 213.381 23.6366 212.957 24.1707L212.566 23.8599C212.137 24.3994 211.721 24.949 211.318 25.5083L211.723 25.8009C211.325 26.3532 210.939 26.915 210.565 27.486L210.147 27.2124C209.77 27.7888 209.406 28.3743 209.056 28.9686L209.486 29.2227C209.141 29.809 208.808 30.404 208.489 31.0072L208.047 30.7734C207.725 31.3818 207.416 31.9984 207.122 32.623L207.574 32.8361C207.284 33.4516 207.008 34.0749 206.746 34.7054L206.284 34.5135C206.02 35.1488 205.77 35.7915 205.535 36.4411L206.005 36.6113C205.774 37.2508 205.556 37.8971 205.354 38.5498L204.876 38.4016C204.673 39.0582 204.484 39.7213 204.31 40.3904L204.794 40.5161C204.623 41.1737 204.467 41.8371 204.326 42.5061L203.837 42.403C203.695 43.075 203.568 43.7526 203.458 44.4353L203.951 44.5155C203.842 45.1855 203.748 45.8605 203.67 46.5401L203.173 46.4829C203.095 47.1645 203.031 47.8508 202.984 48.5413L203.483 48.5756C203.436 49.2522 203.405 49.933 203.389 50.6176L202.889 50.6062C202.885 50.7849 202.882 50.9638 202.88 51.143H202.455V51.643H200.611V51.143H198.767V51.643H196.922V51.143H196.502C196.504 50.9736 196.507 50.8044 196.51 50.6354L196.01 50.6257C196.023 49.9477 196.049 49.2728 196.089 48.6014L196.588 48.6305C196.627 47.9599 196.679 47.2927 196.744 46.6292L196.246 46.5805C196.312 45.9049 196.391 45.2331 196.483 44.5653L196.979 44.6335C197.07 43.9682 197.175 43.3069 197.292 42.65L196.799 42.5623C196.918 41.8951 197.05 41.2323 197.194 40.5742L197.683 40.6813C197.826 40.0261 197.982 39.3757 198.151 38.7301L197.667 38.6038C197.838 37.9481 198.022 37.2974 198.218 36.652L198.697 36.7973C198.892 36.1554 199.099 35.5187 199.319 34.8877L198.846 34.7234C199.069 34.0838 199.303 33.4499 199.55 32.8219L200.015 33.0047C200.26 32.3807 200.517 31.7627 200.786 31.151L200.328 30.95C200.6 30.3303 200.884 29.717 201.18 29.1104L201.629 29.3293C201.922 28.7266 202.227 28.1306 202.544 27.5414L202.103 27.305C202.423 26.7087 202.754 26.1194 203.097 25.5373L203.528 25.7908C203.867 25.2133 204.218 24.6431 204.58 24.0803L204.159 23.8101C204.524 23.241 204.901 22.6796 205.288 22.126L205.698 22.4125C206.081 21.8635 206.475 21.3225 206.88 20.7895L206.482 20.4873C206.89 19.9486 207.309 19.4182 207.738 18.8963L208.125 19.2138C208.55 18.6965 208.985 18.1877 209.43 17.6876L209.056 17.3553C209.506 16.8502 209.965 16.3539 210.433 15.8669L210.794 16.2135C211.258 15.731 211.731 15.2576 212.214 14.7935L211.867 14.4332C212.354 13.9647 212.85 13.5056 213.355 13.0563L213.688 13.4299C214.188 12.985 214.697 12.5498 215.214 12.1245L214.896 11.7383C215.418 11.3092 215.949 10.8902 216.487 10.4815L216.79 10.8798C217.323 10.4754 217.864 10.0812 218.412 9.69751L218.126 9.2877C218.68 8.90075 219.241 8.52437 219.81 8.15884L220.08 8.57954C220.643 8.21808 221.213 7.86735 221.791 7.52763L221.537 7.09667C222.119 6.75424 222.709 6.42289 223.305 6.10291L223.541 6.54349C224.131 6.22736 224.727 5.92243 225.329 5.62901L225.11 5.17947C225.717 4.88406 226.33 4.60019 226.95 4.32815L227.151 4.78597C227.763 4.51737 228.381 4.26042 229.005 4.0154L228.822 3.55C229.45 3.30338 230.084 3.06873 230.724 2.84631L230.888 3.31858C231.519 3.09914 232.155 2.89174 232.797 2.69665L232.652 2.21826C233.297 2.02213 233.948 1.83832 234.604 1.66711L234.73 2.15089C235.376 1.98234 236.026 1.82613 236.681 1.6825L236.574 1.1941C237.232 1.04983 237.895 0.91814 238.562 0.799308L238.65 1.29156C239.307 1.17455 239.968 1.07013 240.634 0.978545L240.565 0.483216C241.233 0.391292 241.905 0.312186 242.581 0.246152L242.629 0.743781C243.293 0.678931 243.96 0.626811 244.631 0.587673L244.601 0.0885218C245.273 0.0493353 245.948 0.0230366 246.626 0.00987008L246.635 0.509776C246.971 0.503269 247.306 0.5 247.643 0.5C247.98 0.5 248.316 0.503269 248.651 0.509776L248.66 0.00987049C249.338 0.0230373 250.013 0.0493363 250.685 0.0885231L250.656 0.587674C251.326 0.626813 251.993 0.678932 252.657 0.743783L252.706 0.246154C253.381 0.312188 254.053 0.391295 254.721 0.483218L254.653 0.978547C255.318 1.07013 255.979 1.17455 256.636 1.29156L256.724 0.79931C257.391 0.918142 258.054 1.04983 258.712 1.19411L258.605 1.68251C259.26 1.82613 259.91 1.98235 260.556 2.1509L260.682 1.66711C261.338 1.83832 261.989 2.02213 262.634 2.21826L262.489 2.69666C263.131 2.89174 263.767 3.09914 264.398 3.31858L264.563 2.84631C265.202 3.06873 265.836 3.30338 266.464 3.55L266.281 4.0154C266.905 4.26043 267.523 4.51738 268.135 4.78597L268.336 4.32815C268.956 4.60019 269.569 4.88406 270.176 5.17947L269.957 5.62901C270.559 5.92243 271.156 6.22736 271.745 6.54349L271.981 6.10291C272.577 6.42289 273.167 6.75424 273.749 7.09667L273.495 7.52763C274.073 7.86734 274.643 8.21807 275.206 8.57953L275.476 8.15884C276.045 8.52437 276.607 8.90075 277.16 9.2877L276.874 9.69751C277.423 10.0812 277.964 10.4754 278.497 10.8798L278.799 10.4815C279.338 10.8902 279.868 11.3092 280.39 11.7383L280.072 12.1245C280.59 12.5498 281.098 12.985 281.599 13.4299L281.931 13.0563C282.436 13.5056 282.932 13.9647 283.419 14.4332L283.073 14.7935C283.555 15.2576 284.029 15.731 284.493 16.2135L284.853 15.8668C285.321 16.3539 285.781 16.8502 286.23 17.3553L285.856 17.6876C286.301 18.1877 286.736 18.6965 287.162 19.2138L287.548 18.8963C287.977 19.4182 288.396 19.9486 288.805 20.4873L288.406 20.7895C288.811 21.3225 289.205 21.8635 289.589 22.4124L289.998 22.126C290.385 22.6796 290.762 23.241 291.127 23.8101L290.707 24.0803C291.068 24.6431 291.419 25.2133 291.759 25.7908L292.189 25.5373C292.532 26.1194 292.863 26.7087 293.183 27.305L292.743 27.5414C293.059 28.1306 293.364 28.7266 293.657 29.3293L294.107 29.1104C294.402 29.717 294.686 30.3303 294.958 30.95L294.5 31.151C294.769 31.7627 295.026 32.3807 295.271 33.0047L295.736 32.8219C295.983 33.4499 296.217 34.0838 296.44 34.7235L295.968 34.8877C296.187 35.5187 296.394 36.1554 296.589 36.7974L297.068 36.652C297.264 37.2974 297.448 37.9481 297.619 38.6038L297.135 38.7301C297.304 39.3757 297.46 40.0261 297.604 40.6813L298.092 40.5742C298.236 41.2323 298.368 41.8951 298.487 42.5623L297.995 42.65C298.112 43.3069 298.216 43.9682 298.308 44.6335L298.803 44.5653C298.895 45.2331 298.974 45.9049 299.04 46.5806L298.542 46.6292C298.607 47.2927 298.659 47.9599 298.698 48.6305L299.198 48.6014C299.237 49.2729 299.263 49.9477 299.276 50.6257L298.776 50.6354C298.783 50.9705 298.786 51.3064 298.786 51.643C298.786 51.9797 298.783 52.3156 298.776 52.6507L299.276 52.6604C299.263 53.3384 299.237 54.0132 299.198 54.6847L298.698 54.6556C298.659 55.3262 298.607 55.9934 298.542 56.6569L299.04 56.7055C298.974 57.3812 298.895 58.053 298.803 58.7208L298.308 58.6526C298.216 59.3179 298.112 59.9792 297.995 60.6361L298.487 60.7238C298.368 61.391 298.236 62.0537 298.092 62.7119L297.604 62.6048C297.46 63.2599 297.304 63.9104 297.135 64.556L297.619 64.6823C297.448 65.338 297.264 65.9887 297.068 66.6341L296.589 66.4887C296.394 67.1307 296.187 67.7673 295.968 68.3984L296.44 68.5626C296.217 69.2023 295.983 69.8362 295.736 70.4642L295.271 70.2814C295.026 70.9054 294.769 71.5233 294.5 72.1351L294.958 72.3361C294.686 72.9557 294.402 73.569 294.107 74.1757L293.657 73.9568C293.364 74.5594 293.059 75.1555 292.743 75.7446L293.183 75.981C292.863 76.5774 292.532 77.1667 292.189 77.7488L291.759 77.4953C291.419 78.0727 291.068 78.643 290.707 79.2057L291.127 79.4759C290.762 80.045 290.385 80.6065 289.998 81.1601L289.589 80.8736C289.205 81.4225 288.811 81.9636 288.406 82.4966L288.805 82.7988C288.396 83.3375 287.977 83.8679 287.548 84.3898L287.162 84.0723C286.736 84.5896 286.301 85.0984 285.856 85.5985L286.23 85.9308C285.781 86.4359 285.321 86.9321 284.853 87.4192L284.493 87.0726C284.029 87.5551 283.555 88.0285 283.073 88.4926L283.419 88.8529C282.932 89.3214 282.436 89.7805 281.931 90.2298L281.599 89.8562C281.098 90.3011 280.59 90.7363 280.072 91.1615L280.39 91.5478C279.868 91.9768 279.338 92.3959 278.799 92.8046L278.497 92.4063C277.964 92.8107 277.423 93.2049 276.874 93.5886L277.16 93.9984C276.607 94.3853 276.045 94.7617 275.476 95.1272L275.206 94.7065C274.643 95.068 274.073 95.4187 273.495 95.7585L273.749 96.1894C273.167 96.5318 272.577 96.8632 271.981 97.1832L271.745 96.7426C271.156 97.0587 270.559 97.3636 269.957 97.6571L270.176 98.1066C269.569 98.402 268.956 98.6859 268.336 98.9579L268.135 98.5001C267.523 98.7687 266.905 99.0257 266.281 99.2707L266.464 99.7361C265.836 99.9827 265.202 100.217 264.563 100.44L264.398 99.9675C263.767 100.187 263.131 100.394 262.489 100.589L262.634 101.068C261.989 101.264 261.338 101.448 260.682 101.619L260.556 101.135C259.91 101.304 259.26 101.46 258.605 101.604L258.712 102.092C258.054 102.236 257.391 102.368 256.724 102.487L256.636 101.995C255.979 102.112 255.318 102.216 254.653 102.308L254.721 102.803C254.053 102.895 253.381 102.974 252.706 103.04L252.657 102.542C251.993 102.607 251.326 102.659 250.656 102.698L250.685 103.198C250.013 103.237 249.338 103.263 248.66 103.276L248.651 102.776C248.482 102.78 248.312 102.782 248.143 102.784V102.364H247.643V100.519H248.143V98.6751H247.643V96.8307H248.143V96.4058C248.322 96.4038 248.501 96.4008 248.68 96.3967L248.669 95.8968C249.353 95.8812 250.034 95.8499 250.711 95.8034L250.745 96.3022C251.435 96.2547 252.122 96.1915 252.803 96.1129L252.746 95.6162C253.426 95.5378 254.101 95.444 254.771 95.3351L254.851 95.8286C255.534 95.7177 256.211 95.5912 256.883 95.4496L256.78 94.9604C257.449 94.8194 258.112 94.6633 258.77 94.4925L258.896 94.9764C259.565 94.8025 260.228 94.6136 260.885 94.4098L260.736 93.9323C261.389 93.7298 262.035 93.5126 262.675 93.281L262.845 93.7511C263.495 93.5159 264.137 93.266 264.773 93.0019L264.581 92.5402C265.211 92.2781 265.834 92.0018 266.45 91.7118L266.663 92.164C267.288 91.8697 267.904 91.5614 268.513 91.2395L268.279 90.7975C268.882 90.4783 269.477 90.1456 270.063 89.7997L270.318 90.2304C270.912 89.8798 271.497 89.5159 272.074 89.1392L271.8 88.7206C272.371 88.3474 272.933 87.9613 273.485 87.5628L273.778 87.9683C274.337 87.5648 274.887 87.1487 275.426 86.7205L275.115 86.3288C275.65 85.9049 276.174 85.469 276.687 85.0214L277.016 85.3984C277.536 84.9455 278.045 84.4809 278.543 84.0049L278.198 83.6433C278.691 83.1725 279.173 82.6905 279.643 82.1976L280.005 82.543C280.481 82.0447 280.946 81.5355 281.398 81.0157L281.021 80.6873C281.469 80.1736 281.905 79.6495 282.329 79.1154L282.721 79.4262C283.149 78.8867 283.565 78.337 283.968 77.7777L283.563 77.4852C283.961 76.9329 284.347 76.371 284.721 75.8001L285.139 76.0737C285.516 75.4973 285.88 74.9118 286.23 74.3175L285.8 74.0634C286.146 73.4771 286.478 72.882 286.798 72.2788L287.24 72.5127C287.561 71.9043 287.87 71.2876 288.164 70.6631L287.712 70.45C288.002 69.8344 288.278 69.2112 288.54 68.5806L289.002 68.7726C289.266 68.1372 289.516 67.4946 289.751 66.845L289.281 66.6747C289.513 66.0353 289.73 65.389 289.932 64.7363L290.41 64.8845C290.614 64.2278 290.803 63.5648 290.976 62.8957L290.493 62.7699C290.663 62.1124 290.819 61.449 290.96 60.78L291.45 60.8831C291.591 60.211 291.718 59.5335 291.829 58.8508L291.335 58.7706C291.444 58.1006 291.538 57.4256 291.616 56.7459L292.113 56.8032C292.192 56.1215 292.255 55.4353 292.302 54.7448L291.803 54.7105C291.85 54.0338 291.881 53.3531 291.897 52.6685L292.397 52.6799C292.405 52.3352 292.409 51.9896 292.409 51.643C292.409 51.2965 292.405 50.9509 292.397 50.6062L291.897 50.6176Z" stroke="#F3CA52" stroke-dasharray="2 2"/>
<path d="M2.84091 32.9602V22.8182H50.625V32.9602H32.8125V81H20.6534V32.9602H2.84091ZM58.4943 81V22.8182H81.4489C85.8428 22.8182 89.5928 23.6042 92.6989 25.1761C95.8239 26.7292 98.2008 28.9356 99.8295 31.7955C101.477 34.6364 102.301 37.9792 102.301 41.8239C102.301 45.6875 101.468 49.0114 99.8011 51.7955C98.1345 54.5606 95.7197 56.6818 92.5568 58.1591C89.4129 59.6364 85.6061 60.375 81.1364 60.375H65.767V50.4886H79.1477C81.4962 50.4886 83.447 50.1667 85 49.5227C86.553 48.8788 87.7083 47.9129 88.4659 46.625C89.2424 45.3371 89.6307 43.7367 89.6307 41.8239C89.6307 39.892 89.2424 38.2633 88.4659 36.9375C87.7083 35.6117 86.5436 34.608 84.9716 33.9261C83.4186 33.2254 81.4583 32.875 79.0909 32.875H70.7955V81H58.4943ZM89.9148 54.5227L104.375 81H90.7955L76.6477 54.5227H89.9148ZM121.023 81H107.841L127.926 22.8182H143.778L163.835 81H150.653L136.08 36.1136H135.625L121.023 81ZM120.199 58.1307H151.335V67.733H120.199V58.1307ZM174.084 22.8182L188.146 67.0227H188.686L202.777 22.8182H216.413L196.357 81H180.504L160.419 22.8182H174.084Z" fill="#F3CA52"/>
<path d="M273.601 51.9091C273.601 58.2538 272.398 63.6515 269.993 68.1023C267.607 72.553 264.349 75.9527 260.22 78.3011C256.11 80.6307 251.489 81.7955 246.357 81.7955C241.186 81.7955 236.546 80.6212 232.436 78.2727C228.326 75.9242 225.078 72.5246 222.692 68.0739C220.305 63.6231 219.112 58.2348 219.112 51.9091C219.112 45.5644 220.305 40.1667 222.692 35.7159C225.078 31.2652 228.326 27.875 232.436 25.5455C236.546 23.197 241.186 22.0227 246.357 22.0227C251.489 22.0227 256.11 23.197 260.22 25.5455C264.349 27.875 267.607 31.2652 269.993 35.7159C272.398 40.1667 273.601 45.5644 273.601 51.9091ZM261.129 51.9091C261.129 47.7992 260.514 44.3333 259.283 41.5114C258.071 38.6894 256.357 36.5492 254.141 35.0909C251.925 33.6326 249.33 32.9034 246.357 32.9034C243.383 32.9034 240.788 33.6326 238.572 35.0909C236.357 36.5492 234.633 38.6894 233.402 41.5114C232.19 44.3333 231.584 47.7992 231.584 51.9091C231.584 56.0189 232.19 59.4848 233.402 62.3068C234.633 65.1288 236.357 67.2689 238.572 68.7273C240.788 70.1856 243.383 70.9148 246.357 70.9148C249.33 70.9148 251.925 70.1856 254.141 68.7273C256.357 67.2689 258.071 65.1288 259.283 62.3068C260.514 59.4848 261.129 56.0189 261.129 51.9091Z" fill="#65B741"/>
</svg>
